<?xml version="1.0" encoding="UTF-8"?>
<!DOCTYPE svg PUBLIC "-//W3C//DTD SVG 1.1//EN" "http://www.w3.org/Graphics/SVG/1.1/DTD/svg11.dtd">
<!-- Creator: CorelDRAW X7 -->
<svg xmlns="http://www.w3.org/2000/svg" xml:space="preserve" width="3.14819in" height="3.31645in" version="1.1" style="shape-rendering:geometricPrecision; text-rendering:geometricPrecision; image-rendering:optimizeQuality; fill-rule:evenodd; clip-rule:evenodd"
viewBox="0 0 270 285"
 xmlns:xlink="http://www.w3.org/1999/xlink">
 <defs>
  <style type="text/css">
   <![CDATA[
    .str0 {stroke:#3E4095;stroke-width:0.596626}
    .fil0 {fill:#3E4095}
   ]]>
  </style>
 </defs>
 <g id="Layer_x0020_1">
  <metadata id="CorelCorpID_0Corel-Layer"/>
  <g id="_394133408">
   <polygon class="fil0 str0" points="77,101 95,95 0,31 0,1 127,86 268,44 268,73 76,128 75,127 1,78 1,51 "/>
   <polygon class="fil0 str0" points="102,163 115,159 113,272 115,272 120,277 128,284 135,278 141,272 142,272 144,151 157,148 155,265 181,250 182,141 270,117 270,88 79,142 79,143 79,143 78,232 101,247 "/>
  </g>
 </g>
</svg>
